<svg width="68" height="65" viewBox="0 0 68 65" fill="none" xmlns="http://www.w3.org/2000/svg">
<g clip-path="url(#clip0_1_6)">
<mask id="mask0_1_6" style="mask-type:luminance" maskUnits="userSpaceOnUse" x="0" y="0" width="68" height="65">
<path d="M68 0H0V65H68V0Z" fill="white"/>
</mask>
<g mask="url(#mask0_1_6)">
<path fill-rule="evenodd" clip-rule="evenodd" d="M34 60C37.778 60 41.5191 59.2887 45.0094 57.9067C48.5 56.5247 51.6713 54.499 54.3428 51.9453C57.0143 49.3917 59.1335 46.3603 60.5793 43.0237C62.0251 39.6873 62.7692 36.1113 62.7692 32.5C62.7692 28.8886 62.0251 25.3127 60.5793 21.9762C59.1335 18.6398 57.0143 15.6082 54.3428 13.0546C51.6713 10.501 48.5 8.47533 45.0094 7.0933C41.5191 5.7113 37.778 5 34 5C26.3699 5 19.0523 7.8973 13.6571 13.0546C8.26179 18.2118 5.23077 25.2065 5.23077 32.5C5.23077 39.7933 8.26179 46.7883 13.6571 51.9453C19.0523 57.1027 26.3699 60 34 60ZM68 32.5C68 41.1197 64.418 49.386 58.0417 55.481C51.6654 61.576 43.0175 65 34 65C24.9826 65 16.3346 61.576 9.95837 55.481C3.58214 49.386 0 41.1197 0 32.5C0 23.8805 3.58214 15.614 9.95837 9.51903C16.3346 3.4241 24.9826 0 34 0C43.0175 0 51.6654 3.4241 58.0417 9.51903C64.418 15.614 68 23.8805 68 32.5Z" fill="black"/>
</g>
<g clip-path="url(#clip1_1_6)">
<path fill-rule="evenodd" clip-rule="evenodd" d="M4.94668 23.5767C4.97017 23.4582 5.0217 23.3452 5.09721 23.2466C5.17272 23.1479 5.27012 23.0664 5.38171 23.0084L18.3203 16.2876C18.4319 16.2296 18.5546 16.1968 18.6787 16.1917C18.8028 16.1867 18.9249 16.2095 19.0354 16.2584L26.0959 19.3921C26.4396 19.5301 26.6352 19.8821 26.5611 20.2526L22.7874 39.2963C22.7639 39.4147 22.7124 39.5278 22.6369 39.6264C22.5614 39.725 22.464 39.8066 22.3524 39.8645C22.2408 39.9225 22.1181 39.9553 21.994 39.9604C21.8699 39.9654 21.7477 39.9426 21.6373 39.8937L3.85425 32.0167C3.70034 31.9486 3.5762 31.8329 3.50046 31.6871C3.42472 31.5413 3.40147 31.3732 3.4342 31.2081L4.94668 23.5767V23.5767ZM23.9653 20.1753L19.6817 18.2759L20.2554 22.1075L23.9653 20.1753V20.1753ZM18.7452 22.8937L18.0342 18.1476L7.06801 23.8439L10.5492 27.1614L18.7452 22.8937V22.8937ZM11.7108 28.2694L18.9845 24.4826L20.8584 36.9884L11.7108 28.2694ZM9.04042 27.9468L6.22345 25.265L5.30758 29.891L9.04042 27.9468ZM6.0055 31.2416L10.2012 29.057L18.1286 36.6111L6.00694 31.2408L6.0055 31.2416ZM22.1194 34.5381L20.4933 23.6971L24.702 21.5058L22.1194 34.5381V34.5381Z" fill="black"/>
</g>
<g clip-path="url(#clip2_1_6)">
<path fill-rule="evenodd" clip-rule="evenodd" d="M33.6462 7.48564C33.7712 7.36743 33.9242 7.27867 34.0932 7.22638C34.2622 7.1741 34.4425 7.15974 34.6199 7.18443L55.1852 10.0473C55.3626 10.072 55.5322 10.135 55.6805 10.2315C55.8287 10.3279 55.9517 10.4551 56.0396 10.6029L61.6548 20.0628C61.9401 20.5065 61.8771 21.0764 61.4856 21.4455L41.4031 40.448C41.2781 40.5662 41.1251 40.6549 40.9561 40.7072C40.7871 40.7595 40.6068 40.7739 40.4294 40.7492C40.252 40.7245 40.0825 40.6614 39.9342 40.565C39.7859 40.4685 39.6629 40.3413 39.575 40.1935L25.4194 16.3856C25.2969 16.1795 25.2481 15.9429 25.2803 15.7111C25.3126 15.4794 25.4242 15.265 25.5983 15.1003L33.6462 7.48564V7.48564ZM58.535 19.2157L55.1269 13.4785L52.6341 18.4009L58.535 19.2157V19.2157ZM50.2322 18.0687L53.3195 11.9713L35.8892 9.54487L37.1966 16.2671L50.2322 18.0687V18.0687ZM37.6319 18.5115L49.2002 20.1109L41.0658 36.1777L37.6319 18.5115ZM34.797 15.9353L33.7369 10.4987L28.8596 15.1153L34.797 15.9353ZM28.5565 17.259L35.2297 18.1814L38.207 33.489L28.5588 17.2594L28.5565 17.259ZM44.5502 34.372L51.5998 20.4428L58.2936 21.3681L44.5502 34.372V34.372Z" fill="black"/>
</g>
<g clip-path="url(#clip3_1_6)">
<path fill-rule="evenodd" clip-rule="evenodd" d="M31.2287 37.4095C31.3171 37.3601 31.4172 37.3315 31.5211 37.3261C31.625 37.3207 31.73 37.3385 31.8276 37.3781L43.1456 41.9776C43.2432 42.0172 43.3309 42.0777 43.4015 42.1541C43.4722 42.2305 43.524 42.3208 43.5528 42.4178L45.3914 48.6238C45.4901 48.9181 45.3719 49.2341 45.0954 49.3882L30.8989 57.3309C30.8106 57.3803 30.7105 57.4089 30.6065 57.4143C30.5026 57.4198 30.3976 57.4019 30.3 57.3623C30.2024 57.3226 30.1148 57.2622 30.0441 57.1858C29.9734 57.1094 29.9216 57.0191 29.8928 56.9221L25.2522 41.2996C25.212 41.1644 25.2183 41.0224 25.2702 40.8948C25.322 40.7673 25.4166 40.6611 25.5396 40.5922L31.2287 37.4095V37.4095ZM43.7339 47.6907L42.6174 43.9264L40.4855 46.3747L43.7339 47.6907V47.6907ZM39.1633 45.8387L41.8038 42.8059L32.2112 38.9077L31.9873 42.9308L39.1633 45.8387V45.8387ZM31.9119 44.2738L38.28 46.8548L31.3224 54.8464L31.9119 44.2738ZM30.6664 42.3954L30.8459 39.1413L27.3978 41.0712L30.6664 42.3954ZM26.9157 42.2503L30.5892 43.7391L30.0795 52.9003L26.9169 42.2509L26.9157 42.2503ZM33.5705 54.319L39.6009 47.3903L43.2858 48.8836L33.5705 54.319V54.319Z" fill="black"/>
</g>
</g>
<defs>
<clipPath id="clip0_1_6">
<rect width="68" height="65" fill="white"/>
</clipPath>
<clipPath id="clip1_1_6">
<rect width="25.92" height="24.3" fill="white" transform="translate(0 24.9482) rotate(-27.4494)"/>
</clipPath>
<clipPath id="clip2_1_6">
<rect width="36.9131" height="34.6061" fill="white" transform="translate(26.7714 5) rotate(7.92502)"/>
</clipPath>
<clipPath id="clip3_1_6">
<rect width="21.7189" height="20.3615" fill="white" transform="translate(27.6657 35) rotate(22.1158)"/>
</clipPath>
</defs>
</svg>
